<?xml version="1.0" standalone="no"?>
<!-- Creator: fig2dev Version 3.2.6a -->
<!-- CreationDate: 2020-05-29 03:46:47 -->
<!-- Magnification: 1.05 -->
<svg	xmlns="http://www.w3.org/2000/svg"
	xmlns:xlink="http://www.w3.org/1999/xlink"
	width="577pt" height="230pt"
	viewBox="2847 2691 9156 3651">
<g fill="none">
<!-- Line -->
<polyline points=" 3149,2724 3149,6309"
	stroke="#000000" stroke-width="30px"/>
<!-- Line -->
<polyline points=" 11700,2724 11700,6309"
	stroke="#000000" stroke-width="30px"/>
<!-- Circle -->
<circle cx="5850" cy="4500" r="450"
	stroke="#000000" stroke-width="30px"/>
<!-- Circle -->
<circle cx="9000" cy="4500" r="450"
	stroke="#000000" stroke-width="30px"/>
<!-- Line -->
<polyline points=" 3150,4500 3375,4050 3825,4950 4275,4050 4725,4950 5175,4050 5400,4500"
	stroke="#000000" stroke-width="30px"/>
<!-- Line -->
<polyline points=" 9450,4500 9675,4050 10125,4950 10575,4050 11025,4950 11475,4050 11700,4500"
	stroke="#000000" stroke-width="30px"/>
<!-- Line -->
<polyline points=" 3150,2790 2880,3060"
	stroke="#000000" stroke-width="30px"/>
<!-- Line -->
<polyline points=" 3150,3240 2880,3510"
	stroke="#000000" stroke-width="30px"/>
<!-- Line -->
<polyline points=" 3150,3690 2880,3960"
	stroke="#000000" stroke-width="30px"/>
<!-- Line -->
<polyline points=" 3150,4140 2880,4410"
	stroke="#000000" stroke-width="30px"/>
<!-- Line -->
<polyline points=" 3150,4590 2880,4860"
	stroke="#000000" stroke-width="30px"/>
<!-- Line -->
<polyline points=" 3150,5040 2880,5310"
	stroke="#000000" stroke-width="30px"/>
<!-- Line -->
<polyline points=" 3150,5490 2880,5760"
	stroke="#000000" stroke-width="30px"/>
<!-- Line -->
<polyline points=" 3150,5940 2880,6210"
	stroke="#000000" stroke-width="30px"/>
<!-- Line -->
<polyline points=" 3150,2790 2880,3060"
	stroke="#000000" stroke-width="30px"/>
<!-- Line -->
<polyline points=" 3150,3240 2880,3510"
	stroke="#000000" stroke-width="30px"/>
<!-- Line -->
<polyline points=" 3150,3690 2880,3960"
	stroke="#000000" stroke-width="30px"/>
<!-- Line -->
<polyline points=" 3150,4140 2880,4410"
	stroke="#000000" stroke-width="30px"/>
<!-- Line -->
<polyline points=" 3150,4590 2880,4860"
	stroke="#000000" stroke-width="30px"/>
<!-- Line -->
<polyline points=" 3150,5040 2880,5310"
	stroke="#000000" stroke-width="30px"/>
<!-- Line -->
<polyline points=" 3150,5490 2880,5760"
	stroke="#000000" stroke-width="30px"/>
<!-- Line -->
<polyline points=" 3150,5940 2880,6210"
	stroke="#000000" stroke-width="30px"/>
<!-- Line -->
<polyline points=" 3150,2790 2880,3060"
	stroke="#000000" stroke-width="30px"/>
<!-- Line -->
<polyline points=" 3150,3240 2880,3510"
	stroke="#000000" stroke-width="30px"/>
<!-- Line -->
<polyline points=" 3150,3690 2880,3960"
	stroke="#000000" stroke-width="30px"/>
<!-- Line -->
<polyline points=" 3150,4140 2880,4410"
	stroke="#000000" stroke-width="30px"/>
<!-- Line -->
<polyline points=" 3150,4590 2880,4860"
	stroke="#000000" stroke-width="30px"/>
<!-- Line -->
<polyline points=" 3150,5040 2880,5310"
	stroke="#000000" stroke-width="30px"/>
<!-- Line -->
<polyline points=" 3150,5490 2880,5760"
	stroke="#000000" stroke-width="30px"/>
<!-- Line -->
<polyline points=" 3150,5940 2880,6210"
	stroke="#000000" stroke-width="30px"/>
<!-- Line -->
<polyline points=" 3150,2790 2880,3060"
	stroke="#000000" stroke-width="30px"/>
<!-- Line -->
<polyline points=" 3150,3240 2880,3510"
	stroke="#000000" stroke-width="30px"/>
<!-- Line -->
<polyline points=" 3150,3690 2880,3960"
	stroke="#000000" stroke-width="30px"/>
<!-- Line -->
<polyline points=" 3150,4140 2880,4410"
	stroke="#000000" stroke-width="30px"/>
<!-- Line -->
<polyline points=" 3150,4590 2880,4860"
	stroke="#000000" stroke-width="30px"/>
<!-- Line -->
<polyline points=" 3150,5040 2880,5310"
	stroke="#000000" stroke-width="30px"/>
<!-- Line -->
<polyline points=" 3150,5490 2880,5760"
	stroke="#000000" stroke-width="30px"/>
<!-- Line -->
<polyline points=" 3150,5940 2880,6210"
	stroke="#000000" stroke-width="30px"/>
<!-- Line -->
<polyline points=" 3150,2790 2880,3060"
	stroke="#000000" stroke-width="30px"/>
<!-- Line -->
<polyline points=" 3150,3240 2880,3510"
	stroke="#000000" stroke-width="30px"/>
<!-- Line -->
<polyline points=" 3150,3690 2880,3960"
	stroke="#000000" stroke-width="30px"/>
<!-- Line -->
<polyline points=" 3150,4140 2880,4410"
	stroke="#000000" stroke-width="30px"/>
<!-- Line -->
<polyline points=" 3150,4590 2880,4860"
	stroke="#000000" stroke-width="30px"/>
<!-- Line -->
<polyline points=" 3150,5040 2880,5310"
	stroke="#000000" stroke-width="30px"/>
<!-- Line -->
<polyline points=" 3150,5490 2880,5760"
	stroke="#000000" stroke-width="30px"/>
<!-- Line -->
<polyline points=" 3150,5940 2880,6210"
	stroke="#000000" stroke-width="30px"/>
<!-- Line -->
<polyline points=" 3150,2790 2880,3060"
	stroke="#000000" stroke-width="30px"/>
<!-- Line -->
<polyline points=" 3150,3240 2880,3510"
	stroke="#000000" stroke-width="30px"/>
<!-- Line -->
<polyline points=" 3150,3690 2880,3960"
	stroke="#000000" stroke-width="30px"/>
<!-- Line -->
<polyline points=" 3150,4140 2880,4410"
	stroke="#000000" stroke-width="30px"/>
<!-- Line -->
<polyline points=" 3150,4590 2880,4860"
	stroke="#000000" stroke-width="30px"/>
<!-- Line -->
<polyline points=" 3150,5040 2880,5310"
	stroke="#000000" stroke-width="30px"/>
<!-- Line -->
<polyline points=" 3150,5490 2880,5760"
	stroke="#000000" stroke-width="30px"/>
<!-- Line -->
<polyline points=" 3150,5940 2880,6210"
	stroke="#000000" stroke-width="30px"/>
<!-- Line -->
<polyline points=" 3150,2790 2880,3060"
	stroke="#000000" stroke-width="30px"/>
<!-- Line -->
<polyline points=" 3150,3240 2880,3510"
	stroke="#000000" stroke-width="30px"/>
<!-- Line -->
<polyline points=" 3150,3690 2880,3960"
	stroke="#000000" stroke-width="30px"/>
<!-- Line -->
<polyline points=" 3150,4140 2880,4410"
	stroke="#000000" stroke-width="30px"/>
<!-- Line -->
<polyline points=" 3150,4590 2880,4860"
	stroke="#000000" stroke-width="30px"/>
<!-- Line -->
<polyline points=" 3150,5040 2880,5310"
	stroke="#000000" stroke-width="30px"/>
<!-- Line -->
<polyline points=" 3150,5490 2880,5760"
	stroke="#000000" stroke-width="30px"/>
<!-- Line -->
<polyline points=" 3150,5940 2880,6210"
	stroke="#000000" stroke-width="30px"/>
<!-- Line -->
<polyline points=" 3150,2790 2880,3060"
	stroke="#000000" stroke-width="30px"/>
<!-- Line -->
<polyline points=" 3150,3240 2880,3510"
	stroke="#000000" stroke-width="30px"/>
<!-- Line -->
<polyline points=" 3150,3690 2880,3960"
	stroke="#000000" stroke-width="30px"/>
<!-- Line -->
<polyline points=" 3150,4140 2880,4410"
	stroke="#000000" stroke-width="30px"/>
<!-- Line -->
<polyline points=" 3150,4590 2880,4860"
	stroke="#000000" stroke-width="30px"/>
<!-- Line -->
<polyline points=" 3150,5040 2880,5310"
	stroke="#000000" stroke-width="30px"/>
<!-- Line -->
<polyline points=" 3150,5490 2880,5760"
	stroke="#000000" stroke-width="30px"/>
<!-- Line -->
<polyline points=" 3150,5940 2880,6210"
	stroke="#000000" stroke-width="30px"/>
<!-- Line -->
<polyline points=" 3150,2790 2880,3060"
	stroke="#000000" stroke-width="30px"/>
<!-- Line -->
<polyline points=" 3150,3240 2880,3510"
	stroke="#000000" stroke-width="30px"/>
<!-- Line -->
<polyline points=" 3150,3690 2880,3960"
	stroke="#000000" stroke-width="30px"/>
<!-- Line -->
<polyline points=" 3150,4140 2880,4410"
	stroke="#000000" stroke-width="30px"/>
<!-- Line -->
<polyline points=" 3150,4590 2880,4860"
	stroke="#000000" stroke-width="30px"/>
<!-- Line -->
<polyline points=" 3150,5040 2880,5310"
	stroke="#000000" stroke-width="30px"/>
<!-- Line -->
<polyline points=" 3150,5490 2880,5760"
	stroke="#000000" stroke-width="30px"/>
<!-- Line -->
<polyline points=" 3150,5940 2880,6210"
	stroke="#000000" stroke-width="30px"/>
<!-- Line -->
<polyline points=" 3150,2790 2880,3060"
	stroke="#000000" stroke-width="30px"/>
<!-- Line -->
<polyline points=" 3150,3240 2880,3510"
	stroke="#000000" stroke-width="30px"/>
<!-- Line -->
<polyline points=" 3150,3690 2880,3960"
	stroke="#000000" stroke-width="30px"/>
<!-- Line -->
<polyline points=" 3150,4140 2880,4410"
	stroke="#000000" stroke-width="30px"/>
<!-- Line -->
<polyline points=" 3150,4590 2880,4860"
	stroke="#000000" stroke-width="30px"/>
<!-- Line -->
<polyline points=" 3150,5040 2880,5310"
	stroke="#000000" stroke-width="30px"/>
<!-- Line -->
<polyline points=" 3150,5490 2880,5760"
	stroke="#000000" stroke-width="30px"/>
<!-- Line -->
<polyline points=" 3150,5940 2880,6210"
	stroke="#000000" stroke-width="30px"/>
<!-- Line -->
<polyline points=" 3150,2790 2880,3060"
	stroke="#000000" stroke-width="30px"/>
<!-- Line -->
<polyline points=" 3150,3240 2880,3510"
	stroke="#000000" stroke-width="30px"/>
<!-- Line -->
<polyline points=" 3150,3690 2880,3960"
	stroke="#000000" stroke-width="30px"/>
<!-- Line -->
<polyline points=" 3150,4140 2880,4410"
	stroke="#000000" stroke-width="30px"/>
<!-- Line -->
<polyline points=" 3150,4590 2880,4860"
	stroke="#000000" stroke-width="30px"/>
<!-- Line -->
<polyline points=" 3150,5040 2880,5310"
	stroke="#000000" stroke-width="30px"/>
<!-- Line -->
<polyline points=" 3150,5490 2880,5760"
	stroke="#000000" stroke-width="30px"/>
<!-- Line -->
<polyline points=" 3150,5940 2880,6210"
	stroke="#000000" stroke-width="30px"/>
<!-- Line -->
<polyline points=" 3150,2790 2880,3060"
	stroke="#000000" stroke-width="30px"/>
<!-- Line -->
<polyline points=" 3150,3240 2880,3510"
	stroke="#000000" stroke-width="30px"/>
<!-- Line -->
<polyline points=" 3150,3690 2880,3960"
	stroke="#000000" stroke-width="30px"/>
<!-- Line -->
<polyline points=" 3150,4140 2880,4410"
	stroke="#000000" stroke-width="30px"/>
<!-- Line -->
<polyline points=" 3150,4590 2880,4860"
	stroke="#000000" stroke-width="30px"/>
<!-- Line -->
<polyline points=" 3150,5040 2880,5310"
	stroke="#000000" stroke-width="30px"/>
<!-- Line -->
<polyline points=" 3150,5490 2880,5760"
	stroke="#000000" stroke-width="30px"/>
<!-- Line -->
<polyline points=" 3150,5940 2880,6210"
	stroke="#000000" stroke-width="30px"/>
<!-- Line -->
<polyline points=" 3150,2790 2880,3060"
	stroke="#000000" stroke-width="30px"/>
<!-- Line -->
<polyline points=" 3150,3240 2880,3510"
	stroke="#000000" stroke-width="30px"/>
<!-- Line -->
<polyline points=" 3150,3690 2880,3960"
	stroke="#000000" stroke-width="30px"/>
<!-- Line -->
<polyline points=" 3150,4140 2880,4410"
	stroke="#000000" stroke-width="30px"/>
<!-- Line -->
<polyline points=" 3150,4590 2880,4860"
	stroke="#000000" stroke-width="30px"/>
<!-- Line -->
<polyline points=" 3150,5040 2880,5310"
	stroke="#000000" stroke-width="30px"/>
<!-- Line -->
<polyline points=" 3150,5490 2880,5760"
	stroke="#000000" stroke-width="30px"/>
<!-- Line -->
<polyline points=" 3150,5940 2880,6210"
	stroke="#000000" stroke-width="30px"/>
<!-- Line -->
<polyline points=" 3150,2790 2880,3060"
	stroke="#000000" stroke-width="30px"/>
<!-- Line -->
<polyline points=" 3150,3240 2880,3510"
	stroke="#000000" stroke-width="30px"/>
<!-- Line -->
<polyline points=" 3150,3690 2880,3960"
	stroke="#000000" stroke-width="30px"/>
<!-- Line -->
<polyline points=" 3150,4140 2880,4410"
	stroke="#000000" stroke-width="30px"/>
<!-- Line -->
<polyline points=" 3150,4590 2880,4860"
	stroke="#000000" stroke-width="30px"/>
<!-- Line -->
<polyline points=" 3150,5040 2880,5310"
	stroke="#000000" stroke-width="30px"/>
<!-- Line -->
<polyline points=" 3150,5490 2880,5760"
	stroke="#000000" stroke-width="30px"/>
<!-- Line -->
<polyline points=" 3150,5940 2880,6210"
	stroke="#000000" stroke-width="30px"/>
<!-- Line -->
<polyline points=" 3150,2790 2880,3060"
	stroke="#000000" stroke-width="30px"/>
<!-- Line -->
<polyline points=" 3150,3240 2880,3510"
	stroke="#000000" stroke-width="30px"/>
<!-- Line -->
<polyline points=" 3150,3690 2880,3960"
	stroke="#000000" stroke-width="30px"/>
<!-- Line -->
<polyline points=" 3150,4140 2880,4410"
	stroke="#000000" stroke-width="30px"/>
<!-- Line -->
<polyline points=" 3150,4590 2880,4860"
	stroke="#000000" stroke-width="30px"/>
<!-- Line -->
<polyline points=" 3150,5040 2880,5310"
	stroke="#000000" stroke-width="30px"/>
<!-- Line -->
<polyline points=" 3150,5490 2880,5760"
	stroke="#000000" stroke-width="30px"/>
<!-- Line -->
<polyline points=" 3150,5940 2880,6210"
	stroke="#000000" stroke-width="30px"/>
<!-- Line -->
<polyline points=" 11970,6210 11700,5940"
	stroke="#000000" stroke-width="30px"/>
<!-- Line -->
<polyline points=" 11970,5760 11700,5490"
	stroke="#000000" stroke-width="30px"/>
<!-- Line -->
<polyline points=" 11970,5310 11700,5040"
	stroke="#000000" stroke-width="30px"/>
<!-- Line -->
<polyline points=" 11970,4860 11700,4590"
	stroke="#000000" stroke-width="30px"/>
<!-- Line -->
<polyline points=" 11970,4410 11700,4140"
	stroke="#000000" stroke-width="30px"/>
<!-- Line -->
<polyline points=" 11970,3960 11700,3690"
	stroke="#000000" stroke-width="30px"/>
<!-- Line -->
<polyline points=" 11970,3510 11700,3240"
	stroke="#000000" stroke-width="30px"/>
<!-- Line -->
<polyline points=" 11970,3060 11700,2790"
	stroke="#000000" stroke-width="30px"/>
<!-- Line -->
<polyline points=" 9000,2970 9000,3420"
	stroke="#000000" stroke-width="30px"/>
<!-- Line -->
<defs>
<clipPath id="cp0">
	<path clip-rule="evenodd" d="M 2847,2691 H 12003 V 6342 H 2847 z
		M 9649,3113 9649,3188 9918,3168 9918,3132z"/>
</clipPath>
</defs>
<polyline points=" 9000,3150 9900,3150" clip-path="url(#cp0)"
	stroke="#000000" stroke-width="30px"/>
<!-- Forward arrow to point 9900,3150 -->
<polygon points=" 9649,3188 9769,3150 9649,3113 9649,3188"
	stroke="#000000" stroke-width="75px" stroke-miterlimit="8" fill="#000000"/>
<!-- Line -->
<polyline points=" 5850,2970 5850,3420"
	stroke="#000000" stroke-width="30px"/>
<!-- Line -->
<defs>
<clipPath id="cp1">
	<path clip-rule="evenodd" d="M 2847,2691 H 12003 V 6342 H 2847 z
		M 6499,3113 6499,3188 6768,3168 6768,3132z"/>
</clipPath>
</defs>
<polyline points=" 5850,3150 6750,3150" clip-path="url(#cp1)"
	stroke="#000000" stroke-width="30px"/>
<!-- Forward arrow to point 6750,3150 -->
<polygon points=" 6499,3188 6619,3150 6499,3113 6499,3188"
	stroke="#000000" stroke-width="75px" stroke-miterlimit="8" fill="#000000"/>
<!-- Line -->
<polyline points=" 6300,4500 6390,4500 6525,3600 6750,5400 6975,3600 7200,5400 7425,3600 7650,5400
 7875,3600 8100,5400 8325,3600 8460,4500 8550,4500"
	stroke="#000000" stroke-width="30px"/>
<!-- Text -->
<text xml:space="preserve" x="6030" y="2970" fill="#000000" font-family="Times" font-style="italic" font-weight="normal" font-size="360" text-anchor="start">x</text>
<!-- Text -->
<text xml:space="preserve" x="6210" y="3060" fill="#000000" font-family="Times" font-style="italic" font-weight="normal" font-size="216" text-anchor="start">1</text>
<!-- Text -->
<text xml:space="preserve" x="9180" y="2970" fill="#000000" font-family="Times" font-style="italic" font-weight="normal" font-size="360" text-anchor="start">x</text>
<!-- Text -->
<text xml:space="preserve" x="9360" y="3060" fill="#000000" font-family="Times" font-style="italic" font-weight="normal" font-size="216" text-anchor="start">2</text>
<!-- Text -->
<text xml:space="preserve" x="7290" y="6120" fill="#0000ff" font-family="Times" font-style="italic" font-weight="normal" font-size="360" text-anchor="start">K</text>
<!-- Text -->
<text xml:space="preserve" x="4410" y="5760" fill="#0000ff" font-family="Times" font-style="italic" font-weight="normal" font-size="360" text-anchor="start">k</text>
<!-- Text -->
<text xml:space="preserve" x="10350" y="5760" fill="#0000ff" font-family="Times" font-style="italic" font-weight="normal" font-size="360" text-anchor="start">k</text>
<!-- Text -->
<text xml:space="preserve" x="5670" y="4680" fill="#8f008f" font-family="Times" font-style="italic" font-weight="normal" font-size="408" text-anchor="start">m</text>
<!-- Text -->
<text xml:space="preserve" x="8820" y="4680" fill="#8f008f" font-family="Times" font-style="italic" font-weight="normal" font-size="408" text-anchor="start">m</text>
</g>
</svg>
